<?xml version="1.0" encoding="utf-8"?>
<!-- Generator: Adobe Illustrator 19.0.0, SVG Export Plug-In . SVG Version: 6.00 Build 0)  -->
<svg version="1.1" id="Layer_1" xmlns="http://www.w3.org/2000/svg" xmlns:xlink="http://www.w3.org/1999/xlink" x="0px" y="0px"
	 viewBox="0 0 96 96" style="enable-background:new 0 0 96 96;" xml:space="preserve">
<style type="text/css">
	.st0{fill:#66FCF1;}
</style>
<g id="XMLID_2_">
	<path id="XMLID_8_" class="st0" d="M22.5,28.3v33.6c15.6,0,18.5,1.9,24,4.7V32.9C43.7,30.1,39.6,28.3,22.5,28.3z M73.5,28.3
		c-17.1,0-21.3,1.9-24,4.7v33.6c5.5-2.8,8.4-4.7,24-4.7V28.3z M15.5,31.8v36H44c-4.6-2.2-7.9-3.5-21.5-3.5h-2.3v-2.3V31.8H15.5z
		 M75.9,31.8v30.1v2.3h-2.3c-13.6,0-16.9,1.3-21.5,3.5h28.5v-36H75.9z"/>
</g>
</svg>
